<?xml version="1.0" standalone="no"?>
<!DOCTYPE svg PUBLIC "-//W3C//DTD SVG 20010904//EN"
 "http://www.w3.org/TR/2001/REC-SVG-20010904/DTD/svg10.dtd">
<svg version="1.0" xmlns="http://www.w3.org/2000/svg"
 width="512.000000pt" height="512.000000pt" viewBox="0 0 512.000000 512.000000"
 preserveAspectRatio="xMidYMid meet">
<metadata>
Created by potrace 1.14, written by Peter Selinger 2001-2017
</metadata>
<g transform="translate(0.000000,512.000000) scale(0.100000,-0.100000)"
fill="#000000" stroke="none">
<path d="M855 4499 c-64 -18 -59 143 -60 -2084 -1 -1117 3 -2045 7 -2062 18
-68 -40 -65 1071 -60 551 2 1016 6 1032 10 32 8 66 13 130 22 69 10 246 56
335 87 169 60 405 188 538 292 35 28 252 245 280 281 17 22 42 54 55 70 23 28
60 84 99 150 51 84 141 284 177 393 87 260 124 504 124 802 0 400 -73 737
-227 1049 -68 139 -72 145 -129 230 -224 333 -538 572 -933 712 -45 15 -92 30
-105 33 -13 3 -40 10 -59 15 -19 6 -60 16 -90 21 -30 6 -66 12 -80 15 -26 6
-68 11 -189 24 -100 10 -1938 10 -1976 0z m1920 -996 c324 -56 591 -278 720
-598 29 -72 35 -94 59 -205 45 -203 40 -443 -13 -651 -42 -168 -93 -278 -180
-394 -161 -212 -367 -329 -651 -369 -25 -4 -214 -6 -420 -6 -413 1 -411 0
-427 62 -7 25 -11 2054 -4 2115 0 7 13 24 29 38 l27 26 390 -2 c280 -1 412 -6
470 -16z"/>
</g>
</svg>
