<?xml version="1.0" standalone="no"?>
<!DOCTYPE svg PUBLIC "-//W3C//DTD SVG 20010904//EN"
 "http://www.w3.org/TR/2001/REC-SVG-20010904/DTD/svg10.dtd">
<svg version="1.0" xmlns="http://www.w3.org/2000/svg"
 width="100.000000pt" height="100.000000pt" viewBox="0 0 100.000000 100.000000"
 preserveAspectRatio="xMidYMid meet">
<metadata>
Created by potrace 1.14, written by Peter Selinger 2001-2017
</metadata>
<g transform="translate(0.000000,100.000000) scale(0.100000,-0.100000)"
fill="#000000" stroke="none">
<path d="M525 958 c-94 -32 -165 -61 -173 -71 -6 -7 -15 -31 -21 -53 -10 -37
-41 -81 -41 -58 0 15 -80 -125 -140 -246 -72 -143 -90 -201 -84 -273 8 -104
49 -162 119 -172 22 -3 49 -8 61 -10 12 -3 36 -7 55 -10 19 -2 60 -9 92 -13
31 -5 110 -8 175 -7 127 3 200 21 273 69 90 60 124 158 77 225 -41 61 -139
101 -249 101 -78 0 -135 -22 -204 -80 -76 -63 -95 -65 -96 -7 0 23 -2 53 -4
67 -2 14 -4 61 -5 105 -2 66 3 94 26 159 27 73 32 80 67 92 27 10 52 10 94 4
59 -10 93 -6 93 11 0 5 0 11 0 14 0 2 12 16 25 29 14 14 25 32 25 41 0 14
-114 97 -129 94 -3 -1 -19 -6 -36 -11z"/>
</g>
</svg>
